<svg viewBox="0 0 36 36" xmlns="http://www.w3.org/2000/svg">
	<path fill="#444" d="M26.094 1.276A10.271 10.271 0 0 0 18.003 5.81A10.262 10.262 0 0 0 9.92 1.276C4.08 1.276 0 5.77 0 12.208c0 10.082 15.717 21.136 17.51 22.364a0.85 0.85 0 0 0 0.483 0.152h0a0.86 0.86 0 0 0 0.483-0.152c1.8-1.228 17.524-12.293 17.524-22.364C36.006 5.77 31.934 1.276 26.094 1.276ZM9.92 2.99c4.487 0 7.061 4.321 7.341 4.81a0.857 0.857 0 0 0 1.491 0c0.277-0.493 2.849-4.81 7.341-4.81 4.904 0 8.202 3.706 8.202 9.218a11.191 11.191 0 0 1-1.131 4.591H22.565a0.907 0.907 0 0 0-0.854 0.615l-1.943 5.828L15.931 9.299a0.907 0.907 0 0 0-0.811-0.659a0.89 0.89 0 0 0-0.896 0.558L11.268 16.799H2.849A11.191 11.191 0 0 1 1.713 12.208C1.713 6.696 5.012 2.99 9.92 2.99ZM18.003 32.825c-4.511-3.162-10.957-8.67-14.223-14.226H11.882a0.907 0.907 0 0 0 0.839-0.572l2.193-5.632l3.904 14.182a0.907 0.907 0 0 0 0.846 0.663H19.687a0.907 0.907 0 0 0 0.839-0.615l2.678-8.03h9.002C28.96 24.151 22.512 29.661 18.003 32.825Z"/>
</svg>