<svg viewBox="0 0 36 36" data-use="/cms/svg/site/dv5guqmrkyk.36.svg#book_pen">
	<path d="M14.619 34.592h-11.469a3 3 0 0 1-2.989-3v-16.281a2.985 2.985 0 0 1 2.989-2.993h0.985v-1.763a1 1 0 0 1 0.453-0.839c3.875-2.616 8.019-2.083 13.19-0.256a10.426 10.426 0 0 1 5.518-1.507l3.344-6.021a3.048 3.048 0 0 1 4.172-1.194a3.086 3.086 0 0 1 1.19 4.187l-2.352 4.238c0.46 0.149 0.913 0.3 1.332 0.433a1 1 0 0 1 0.687 0.953v1.763h1.488a3.017 3.017 0 0 1 3 3v16.281a3 3 0 0 1-2.99 3h-11.965a3.989 3.989 0 0 1-3.294 1.749A3.991 3.991 1309 0 1 14.619 34.592Zm-12.467-19.281v16.281a1 1 0 0 0 1 1h12.043a1 1 0 0 1 0.907 0.583a2 2 0 0 0 1.806 1.167a1.993 1.993 0 0 0 1.806-1.167a1 1 0 0 1 0.907-0.583h12.538a1 1 0 0 0 1-1h0.014v-16.281a1 1 0 0 0-1-1h-1.487v15.882a0.984 0.984 0 0 1-1.3 0.953c-4.145-1.358-8.062-2.645-11.915-0.114a1 1 0 0 1-0.857 0.114c-4.952-1.657-8.273-2.439-11.915-0.114a1.014 1.014 0 0 1-1.544-0.839V14.31h-1A1 1 1309 0 0 2.152 15.312Zm27.527 13.508v-17.547q-0.5-0.159-1.02-0.32l-1.976 3.555a0.944 0.944 0 0 1-0.333 0.356l-3.683 2.36a0.988 0.988 0 0 1-1.53-0.853l0.063-4.387a1.077 1.077 0 0 1 0.128-0.469l0.836-1.5a8.27 8.27 0 0 0-3.258 1.088v17.4a10.381 10.381 0 0 1 4.384-0.933A21.328 21.328 1309 0 1 29.679 28.82Zm-12.772 0v-17.547c-3.818-1.386-7.7-2.062-10.774-0.17v17.4a10.53 10.53 0 0 1 4.429-0.928A20.043 20.043 1309 0 1 16.907 28.82Zm6.284-16.551l-0.036 2.282l1.913-1.229l0.574-1.038l-1.877-1.052Zm1.544-2.787l1.877 1.052l2.38-4.294l-1.877-1.045Zm3.648-6.577l-0.29 0.541l1.877 1.052l0.3-0.54a1.086 1.086 0 0 0-0.418-1.472a1.043 1.043 0 0 0-0.51-0.13A1.094 1.094 1309 0 0 28.383 2.906Zm-8.21 22.3a1 1 0 0 1 0.708-1.223a13.845 13.845 0 0 1 6.793-0.384a1 1 0 0 1 0.751 1.195a1 1 0 0 1-1.19 0.754a11.936 11.936 0 0 0-5.844 0.37a0.966 0.966 0 0 1-0.239 0.03A1.035 1.035 1309 0 1 20.173 25.2Zm-5.744 0.7a11.94 11.94 0 0 0-5.844-0.37a1 1 0 0 1-1.19-0.754a1 1 0 0 1 0.751-1.195a13.848 13.848 0 0 1 6.794 0.384a1 1 0 0 1 0.708 1.223a1.032 1.032 0 0 1-0.973 0.743A0.941 0.941 1309 0 1 14.429 25.9Zm5.737-6.214a1 1 0 0 1 0.708-1.223a13.841 13.841 0 0 1 6.794-0.384a1 1 0 0 1 0.751 1.194a1 1 0 0 1-1.19 0.754a12.038 12.038 0 0 0-5.844 0.37a0.964 0.964 0 0 1-0.24 0.03A1.034 1.034 1309 0 1 20.166 19.691Zm-5.737 0.71a11.948 11.948 0 0 0-5.844-0.37a0.992 0.992 0 0 1-1.19-0.754a1 1 0 0 1 0.751-1.194a13.84 13.84 0 0 1 6.794 0.384a1 1 0 0 1 0.708 1.223a1.032 1.032 0 0 1-0.978 0.74A0.964 0.964 1309 0 1 14.429 20.4Zm0-5.524a11.947 11.947 0 0 0-5.844-0.37a0.992 0.992 0 0 1-1.19-0.754a1 1 0 0 1 0.751-1.194a13.848 13.848 0 0 1 6.794 0.384a1 1 0 0 1 0.708 1.223a1.032 1.032 0 0 1-0.978 0.74A0.967 0.967 1309 0 1 14.429 14.878Z"></path>
</svg>
