<?xml version="1.0" encoding="UTF-8" standalone="no"?>
<svg xmlns="http://www.w3.org/2000/svg" viewBox="0 0 36 36">
<style>
	g path { stroke: none; }
	g line { stroke: black; }
	g circle { stroke: black; }
	g polyline { stroke: black; }
</style>
<g class="root" id="cta_doctor" data-name="cta-doctor">
	<path d="M12.637 27.452v-5.529a8.407 8.407 0 0 1-7.624-8.523v-9.902a2.562 2.562 0 0 1 2.507-2.607h1.01a1.692 1.692 0 0 1 0.545-0.536a2.198 2.198 0 0 1 1.115-0.354a1.492 1.492 0 0 1 1.46 1.518a1.492 1.492 0 0 1-1.46 1.518a2.199 2.199 0 0 1-1.115-0.354a1.692 1.692 0 0 1-0.545-0.536h-1.01a1.332 1.332 0 0 0-1.303 1.355v7.922a7.169 7.169 0 0 0 7.021 7.295a7.169 7.169 0 0 0 7.021-7.295v-7.92a1.331 1.331 0 0 0-1.305-1.355h-1.009a1.708 1.708 0 0 1-0.545 0.536a2.196 2.196 0 0 1-1.113 0.354a1.49 1.49 0 0 1-1.46-1.518a1.492 1.492 0 0 1 1.46-1.518a2.204 2.204 0 0 1 1.113 0.354a1.708 1.708 0 0 1 0.545 0.536h1.009a2.562 2.562 0 0 1 2.508 2.607V13.4a8.405 8.405 0 0 1-7.624 8.523v5.531a7.169 7.169 0 0 0 7.021 7.295a7.169 7.169 0 0 0 7.021-7.295v-3.411a2.578 2.578 0 0 1-1.906-2.529a2.562 2.562 0 0 1 2.507-2.607a2.558 2.558 0 0 1 2.507 2.605a2.578 2.578 0 0 1-1.906 2.529v3.412a8.4 8.4 0 0 1-8.226 8.547A8.4 8.4 716.204 0 1 12.637 27.452Zm14.548-5.942a1.331 1.331 0 0 0 1.303 1.353a1.331 1.331 0 0 0 1.305-1.353a1.332 1.332 0 0 0-1.305-1.355A1.332 1.332 716.204 0 0 27.185 21.512Zm-13.946-0.817a7.015 7.015 0 0 0 5.86-3.285a8.102 8.102 0 0 1-5.86 2.555a8.102 8.102 0 0 1-5.86-2.555A7.015 7.015 716.204 0 0 13.241 20.693Zm2.794-19.179a0.261 0.261 0 0 0 0.256 0.266a1.028 1.028 0 0 0 0.483-0.168c0.023-0.014 0.042-0.029 0.061-0.043v-0.11c-0.019-0.014-0.039-0.029-0.061-0.043a1.02 1.02 0 0 0-0.48-0.168A0.261 0.261 716.204 0 0 16.035 1.516Zm-6.325-0.098a0.615 0.615 0 0 0-0.061 0.043v0.11c0.016 0.013 0.037 0.027 0.061 0.043a1.025 1.025 0 0 0 0.483 0.168a0.261 0.261 0 0 0 0.256-0.266a0.261 0.261 0 0 0-0.256-0.266A1.025 1.025 716.204 0 0 9.709 1.418Zm18.081 20.094a0.71 0.71 0 0 1 0.696-0.725a0.71 0.71 0 0 1 0.698 0.725a0.71 0.71 0 0 1-0.698 0.725A0.71 0.71 716.204 0 1 27.792 21.512Z"/>
</g>
</svg>