<svg viewBox="0 0 36 36" xmlns="http://www.w3.org/2000/svg">
  <path fill="#444" d="M0.007 31.716a4.289 4.289 0 0 1 4.284-4.284a4.289 4.289 0 0 1 4.286 4.284a4.289 4.289 0 0 1-4.286 4.284A4.289 4.289 0 0 1 0.007 31.716Zm1.708 0a2.574 2.574 0 0 0 2.576 2.569a2.574 2.574 0 0 0 2.569-2.569a2.574 2.574 0 0 0-2.569-2.569A2.574 2.574 0 0 0 1.717 31.716Zm12.856 3.142a0.859 0.859 0 0 1-0.853-0.853a0.859 0.859 0 0 1 0.853-0.86h6.854a0.86 0.86 0 0 1 0.86 0.86a0.859 0.859 0 0 1-0.86 0.853Zm0-4.567a0.86 0.86 0 0 1-0.853-0.86a0.859 0.859 0 0 1 0.853-0.853h20.563a0.859 0.859 0 0 1 0.86 0.853a0.86 0.86 0 0 1-0.86 0.86Zm-14.564-12.291a4.289 4.289 0 0 1 4.284-4.284a4.289 4.289 0 0 1 4.286 4.284a4.289 4.289 0 0 1-4.286 4.284A4.289 4.289 0 0 1 0.007 18Zm1.708 0a2.574 2.574 0 0 0 2.576 2.569a2.574 2.574 0 0 0 2.569-2.569a2.574 2.574 0 0 0-2.569-2.569A2.574 2.574 0 0 0 1.717 18Zm12.856 3.142a0.859 0.859 0 0 1-0.853-0.853a0.86 0.86 0 0 1 0.853-0.86h14.852a0.855 0.855 0 0 1 0.853 0.86a0.853 0.853 0 0 1-0.853 0.853Zm0-4.567a0.86 0.86 0 0 1-0.853-0.86a0.859 0.859 0 0 1 0.853-0.853h20.563a0.859 0.859 0 0 1 0.86 0.853a0.86 0.86 0 0 1-0.86 0.86Zm-14.564-12.291a4.289 4.289 0 0 1 4.284-4.284a4.289 4.289 0 0 1 4.286 4.284a4.289 4.289 0 0 1-4.286 4.284A4.289 4.289 0 0 1 0.007 4.293Zm1.708 0a2.574 2.574 0 0 0 2.576 2.569a2.574 2.574 0 0 0 2.569-2.569a2.574 2.574 0 0 0-2.569-2.569A2.574 2.574 0 0 0 1.717 4.293Zm12.856 3.142a0.859 0.859 0 0 1-0.853-0.853a0.86 0.86 0 0 1 0.853-0.86h11.422a0.862 0.862 0 0 1 0.86 0.86a0.86 0.86 0 0 1-0.86 0.853Zm0-4.574a0.853 0.853 0 0 1-0.853-0.853a0.859 0.859 0 0 1 0.853-0.853h20.563a0.859 0.859 0 0 1 0.86 0.853a0.853 0.853 0 0 1-0.86 0.853Z"></path>
</svg>