<?xml version="1.0" encoding="UTF-8" standalone="no"?>
<svg xmlns="http://www.w3.org/2000/svg" viewBox="0 0 36 36">
<style>
	g path { stroke: none; }
	g line { stroke: black; }
	g circle { stroke: black; }
	g polyline { stroke: black; }
</style>
<g class="root" id="cta_location" data-name="cta-location">
	<path d="M35.383 12.495H26.472V3.355a0.617 0.617 0 0 0-0.617-0.617H10.148a0.617 0.617 0 0 0-0.617 0.617V12.495H0.618a0.617 0.617 0 0 0-0.617 0.617V32.644a0.617 0.617 0 0 0 0.617 0.617H35.383a0.617 0.617 0 0 0 0.617-0.617V13.114A0.617 0.617-5.175 0 0 35.383 12.495ZM9.531 32.025H1.235V13.731h8.292V32.025Zm7.852 0H15.104v-4.614h2.282Zm3.519 0H18.618v-4.614h2.282Zm4.335 0H22.138V26.792a0.617 0.617 0 0 0-0.617-0.617H14.483a0.617 0.617 0 0 0-0.617 0.617v5.232H10.766V3.973H25.235Zm9.532 0h-8.292V13.731h8.292V32.025ZM14.26 11.63h1.878v1.878a0.617 0.617 0 0 0 0.617 0.617h2.494a0.617 0.617 0 0 0 0.617-0.617V11.63h1.877a0.617 0.617 0 0 0 0.617-0.617V8.518a0.617 0.617 0 0 0-0.617-0.617H19.866V6.024a0.617 0.617 0 0 0-0.617-0.617H16.754a0.617 0.617 0 0 0-0.617 0.617v1.877H14.26a0.617 0.617 0 0 0-0.617 0.617v2.493A0.617 0.617-5.175 0 0 14.26 11.63Zm0.617-2.493H16.754a0.617 0.617 0 0 0 0.617-0.617V6.641H18.634v1.877a0.617 0.617 0 0 0 0.617 0.617h1.877v1.258H19.248a0.617 0.617 0 0 0-0.617 0.617v1.878H17.373V11.012a0.617 0.617 0 0 0-0.617-0.617H14.877ZM12.994 19.792H16.335a0.617 0.617 0 0 0 0.617-0.617V17.111a0.617 0.617 0 0 0-0.617-0.617H12.994a0.617 0.617 0 0 0-0.617 0.617v2.062A0.617 0.617-5.175 0 0 12.994 19.792Zm0.617-2.062h2.102V18.556H13.611ZM3.713 19.792h3.338a0.617 0.617 0 0 0 0.617-0.617V17.111a0.617 0.617 0 0 0-0.617-0.617H3.713a0.617 0.617 0 0 0-0.617 0.617v2.062A0.617 0.617-5.175 0 0 3.713 19.792Zm0.617-2.062h2.102V18.556H4.33ZM3.713 24.615h3.338a0.617 0.617 0 0 0 0.617-0.617V21.938a0.617 0.617 0 0 0-0.617-0.617H3.713a0.617 0.617 0 0 0-0.617 0.617V23.999A0.617 0.617-5.175 0 0 3.713 24.615Zm0.617-2.061h2.102V23.383H4.33Zm-0.617 6.887h3.338a0.617 0.617 0 0 0 0.617-0.617V26.764a0.617 0.617 0 0 0-0.617-0.617H3.713a0.617 0.617 0 0 0-0.617 0.617v2.062A0.617 0.617-5.175 0 0 3.713 29.442Zm0.617-2.062h2.102v0.826H4.33Zm24.621-7.589h3.338a0.617 0.617 0 0 0 0.617-0.617V17.111a0.617 0.617 0 0 0-0.617-0.617H28.949a0.617 0.617 0 0 0-0.617 0.617v2.062A0.617 0.617-5.175 0 0 28.949 19.792Zm0.617-2.062h2.102V18.556H29.568ZM28.949 24.615h3.338a0.617 0.617 0 0 0 0.617-0.617V21.938a0.617 0.617 0 0 0-0.617-0.617H28.949a0.617 0.617 0 0 0-0.617 0.617V23.999A0.617 0.617-5.175 0 0 28.949 24.615Zm0.617-2.061h2.102V23.383H29.568Zm-0.617 6.887h3.338a0.617 0.617 0 0 0 0.617-0.617V26.764a0.617 0.617 0 0 0-0.617-0.617H28.949a0.617 0.617 0 0 0-0.617 0.617v2.062A0.617 0.617-5.175 0 0 28.949 29.442Zm0.617-2.062h2.102v0.826H29.568ZM19.051 17.111v2.062a0.617 0.617 0 0 0 0.617 0.617h3.338a0.617 0.617 0 0 0 0.617-0.617V17.111a0.617 0.617 0 0 0-0.617-0.617H19.669A0.617 0.617-5.175 0 0 19.051 17.111Zm1.235 0.617h2.102V18.556H20.288ZM12.994 24.615H16.335a0.617 0.617 0 0 0 0.617-0.617V21.938a0.617 0.617 0 0 0-0.617-0.617H12.994a0.617 0.617 0 0 0-0.617 0.617v2.062A0.617 0.617-5.175 0 0 12.994 24.615Zm0.617-2.062h2.102V23.383H13.611Zm9.397-1.235H19.669a0.617 0.617 0 0 0-0.617 0.617v2.062a0.617 0.617 0 0 0 0.617 0.617h3.338a0.617 0.617 0 0 0 0.617-0.617V21.938A0.617 0.617-5.175 0 0 23.009 21.321ZM22.391 23.383H20.288V22.556h2.102Z"/>
</g>
</svg>