<svg viewBox="0 0 36 36" xmlns="http://www.w3.org/2000/svg">
  <path fill="#444" d="M2.013 35.999a2.016 2.016 0 0 1-2.013-2.011v-31.977a2.016 2.016 0 0 1 2.013-2.012h31.976a2.015 2.015 0 0 1 2.011 2.012v31.977a2.015 2.015 0 0 1-2.011 2.011Zm-0.292-33.988v31.977a0.291 0.291 0 0 0 0.292 0.288h31.976a0.292 0.292 0 0 0 0.291-0.288v-31.977a0.293 0.293 0 0 0-0.291-0.29h-31.976A0.292 0.292 0 0 0 1.721 2.011Zm19.373 29.78a0.863 0.863 0 0 1 0-1.726h10.609a0.863 0.863 0 0 1 0 1.726Zm-16.709 0a0.863 0.863 0 0 1 0-1.726h10.615a0.863 0.863 0 0 1-0.005 1.726Zm16.709-4.32a0.861 0.861 0 1 1 0-1.723h10.609a0.861 0.861 0 1 1 0 1.723Zm-16.709 0a0.861 0.861 0 1 1 0-1.723h10.615a0.861 0.861 0 0 1-0.005 1.723Zm1.157-4.423a2.015 2.015 0 0 1-2.013-2.011v-10.8a2.014 2.014 0 0 1 2.013-2.012h25.011a2.015 2.015 0 0 1 2.013 2.012v10.8a2.016 2.016 0 0 1-2.013 2.011Zm-0.285-1.955a0.29 0.29 0 0 0 0.285 0.232h25.011a0.289 0.289 0 0 0 0.289-0.248v-3.106l-6.076-4.31l-9 6.924a0.9 0.9 0 0 1-0.531 0.18a0.841 0.841 0 0 1-0.375-0.09l-4.71-2.285Zm0-10.863v8.9l4.46-2.466a0.854 0.854 0 0 1 0.413-0.105a0.9 0.9 0 0 1 0.382 0.09l4.631 2.25l9.083-6.982a0.854 0.854 0 0 1 0.522-0.18a0.876 0.876 0 0 1 0.499 0.158l5.607 3.971v-5.638a0.292 0.292 0 0 0-0.291-0.292h-25.013A0.292 0.292 0 0 0 5.254 10.229Zm0.786 2.647a2.592 2.592 0 1 1 2.59 2.591A2.595 2.595 0 0 1 6.039 12.877Zm1.725 0a0.867 0.867 0 1 0 0.865-0.869A0.867 0.867 0 0 0 7.765 12.877Zm21.491-6.82a0.863 0.863 0 0 1 0-1.726h2.449a0.863 0.863 0 0 1 0 1.726Zm-4.509 0a0.863 0.863 0 0 1 0-1.726h2.449a0.863 0.863 0 0 1 0 1.726Zm-20.791 0a0.863 0.863 0 0 1 0-1.726h18.386a0.863 0.863 0 0 1 0 1.726Z"></path>
</svg>