<svg viewBox="0 0 36 36" xmlns="http://www.w3.org/2000/svg">
    <path fill="#444" d="M4.755 36a4.738 4.738 0 0 1-4.732-4.732v-19.946a4.729 4.729 0 0 1 4.732-4.688h23.085v-5.881a0.774 0.774 0 0 1 0.753-0.753h3.271a4.105 4.105 0 0 1 4.113 4.112v24.501a4.701 4.701 0 0 1-4.732 4.688H7.632v1.945a0.774 0.774 0 0 1-0.753 0.753Zm-3.229-4.732a3.246 3.246 0 0 0 3.229 3.229h1.326v-18.131h-1.326a4.785 4.785 0 0 1-3.229-1.284Zm0-19.946v0.352a3.246 3.246 0 0 0 3.229 3.229h2.079a0.776 0.776 0 0 1 0.753 0.753v16.186h23.706a3.208 3.208 0 0 0 3.229-3.185V7.302a3.925 3.925 0 0 1-2.388 0.841h-27.374A3.209 3.209 0 0 0 1.527 11.322Zm27.817-4.688h2.742v-0.044a2.374 2.374 0 0 0 2.388-2.388v-0.044a2.613 2.613 0 0 0-2.61-2.61h-2.522Zm-12.382 21.537a0.774 0.774 0 0 1-0.753-0.751v-3.802h-3.802a0.776 0.776 0 0 1-0.753-0.753v-5.97a0.774 0.774 0 0 1 0.753-0.753h3.802v-3.802a0.774 0.774 0 0 1 0.753-0.753h5.97a0.774 0.774 0 0 1 0.753 0.753v3.802h3.802a0.774 0.774 0 0 1 0.753 0.753v5.97a0.776 0.776 0 0 1-0.753 0.753h-3.802v3.802a0.774 0.774 0 0 1-0.753 0.751Zm-3.802-6.058h3.802a0.776 0.776 0 0 1 0.753 0.753v3.802h4.467V22.865a0.776 0.776 0 0 1 0.753-0.753h3.802v-4.467H22.932a0.774 0.774 0 0 1-0.753-0.753v-3.802h-4.467v3.802a0.774 0.774 0 0 1-0.753 0.753h-3.802Z"/>
</svg>